<?xml version="1.0" standalone="no"?>
<!DOCTYPE svg PUBLIC "-//W3C//DTD SVG 1.1//EN" "http://www.w3.org/Graphics/SVG/1.1/DTD/svg11.dtd" >
<svg xmlns="http://www.w3.org/2000/svg">
<metadata>
Created by FontForge 20120731 at Tue Jul 19 10:28:04 2016
 By admin
</metadata>
<defs>
<font id="iconfont" horiz-adv-x="1024" >
  <font-face 
    font-family="iconfont"
    font-weight="500"
    font-stretch="normal"
    units-per-em="1024"
    panose-1="2 0 6 3 0 0 0 0 0 0"
    ascent="896"
    descent="-128"
    x-height="792"
    bbox="34 -102 956 792"
    underline-thickness="50"
    underline-position="-100"
    unicode-range="U+0078-E628"
  />
<missing-glyph horiz-adv-x="374" 
d="M34 0v682h272v-682h-272zM68 34h204v614h-204v-614z" />
    <glyph glyph-name=".notdef" horiz-adv-x="374" 
d="M34 0v682h272v-682h-272zM68 34h204v614h-204v-614z" />
    <glyph glyph-name=".null" horiz-adv-x="0" 
 />
    <glyph glyph-name="nonmarkingreturn" horiz-adv-x="341" 
 />
    <glyph glyph-name="x" unicode="x" horiz-adv-x="1001" 
d="M281 543q-27 -1 -53 -1h-83q-18 0 -36.5 -6t-32.5 -18.5t-23 -32t-9 -45.5v-76h912v41q0 16 -0.5 30t-0.5 18q0 13 -5 29t-17 29.5t-31.5 22.5t-49.5 9h-133v-97h-438v97zM955 310v-52q0 -23 0.5 -52t0.5 -58t-10.5 -47.5t-26 -30t-33 -16t-31.5 -4.5q-14 -1 -29.5 -0.5
t-29.5 0.5h-32l-45 128h-439l-44 -128h-29h-34q-20 0 -45 1q-25 0 -41 9.5t-25.5 23t-13.5 29.5t-4 30v167h911zM163 247q-12 0 -21 -8.5t-9 -21.5t9 -21.5t21 -8.5q13 0 22 8.5t9 21.5t-9 21.5t-22 8.5zM316 123q-8 -26 -14 -48q-5 -19 -10.5 -37t-7.5 -25t-3 -15t1 -14.5
t9.5 -10.5t21.5 -4h37h67h81h80h64h36q23 0 34 12t2 38q-5 13 -9.5 30.5t-9.5 34.5q-5 19 -11 39h-368zM336 498v228q0 11 2.5 23t10 21.5t20.5 15.5t34 6h188q31 0 51.5 -14.5t20.5 -52.5v-227h-327z" />
    <glyph glyph-name="uniE600" unicode="&#xe600;" 
d="M486 330zM301 491q68 -39 134 -77l91 128q-12 24 -26 48q-33 49 -58 53h-7h-11q-14 -3 -23 -12q-58 -57 -100 -140zM499 441l206 -20l87 188l-71 -41q-34 68 -83 90q-131 -1 -203 -1q35 1 76 -59q36 -62 59 -116zM795 422q-44 -26 -133 -79l7 -14v1l1 -3l52 -112
q31 -2 65 -1q62 5 76 28l1 2l5 9q1 7 -1 13q-22 78 -73 156zM656 288l-118 -170l122 -168l-1 82q75 -4 118 28q15 28 99 178q-16 -32 -89 -38q-71 -1 -130 6zM520 34q-10 99 -15 154l-149 1q-13 -26 -26 -55q-23 -58 -8 -81l1 -2l7 -9q8 -5 17 -7q80 -14 173 -1zM452 220
l-102 180l-204 -37l75 -35q-36 -66 -26 -119q65 -91 117 -166q-21 28 5 97q30 64 61 115z" />
    <glyph glyph-name="uniE601" unicode="&#xe601;" 
d="M824 686h-36v10q0 24 -17 41t-41 17h-1q-23 0 -40 -17t-17 -41v-10h-319v10q0 24 -17 41t-41 17t-41 -17t-17 -41v-10h-36q-23 0 -40 -17t-17 -41v-553q0 -24 17 -41t40 -17h623q23 0 40 17t17 41v553q0 24 -17 41t-40 17zM695 696q0 15 10 25t24 10h1q14 0 24.5 -10
t10.5 -25v-102q0 -15 -10.5 -25t-24.5 -10h-1q-14 0 -24 10t-10 25v102zM260 696q0 15 10 25t25 10t25 -10t10 -25v-102q0 -15 -10 -25t-25 -10t-25 10t-10 25v102zM824 63h-623q-4 0 -7.5 3.5t-3.5 8.5v407h645v-407q0 -5 -3.5 -8.5t-7.5 -3.5zM274 399h107v-53h-107v53z
M460 399h106v-53h-106v53zM645 399h104v-53h-104v53zM274 292h107v-51h-107v51zM460 292h106v-51h-106v51zM645 292h104v-51h-104v51zM274 189h107v-54h-107v54zM460 189h106v-54h-106v54zM645 189h104v-54h-104v54z" />
    <glyph glyph-name="uniE602" unicode="&#xe602;" 
d="M512 130l371 463h-742z" />
    <glyph glyph-name="uniE603" unicode="&#xe603;" 
d="M353 753q41 -8 44 -9q102 -30 124 -140q12 -57 -8 -130q-85 38 -139 -28q-5 15 -12.5 27.5t-21.5 24t-21 16.5t-26 17q-55 35 -66 82t21 90.5t80 46.5q1 0 18 3h7zM522 265q78 57 48 137q11 -3 23 -3t20.5 1.5t20.5 6t18 7.5l20 9q13 6 18 9q33 15 60 17q41 4 73.5 -22
t40.5 -68q16 -82 -68 -143q-88 -65 -200 -3q-12 6 -23.5 14.5t-27 20t-23.5 17.5zM339 363q6 -47 28 -74.5t67 -34.5q-9 -10 -15 -20.5t-9.5 -25t-5 -21.5t-3 -26.5t-1.5 -23.5q-4 -42 -17 -66q-20 -39 -59.5 -51t-76.5 1.5t-55 41.5q-47 72 -28 147t95 117q11 6 24 12
t30 13t26 11zM459.5 297q-29.5 0 -49.5 20.5t-20 49.5t20 49.5t49 20.5t49.5 -20.5t20.5 -49.5t-20 -49.5t-49.5 -20.5z" />
    <glyph glyph-name="uniE604" unicode="&#xe604;" 
d="M280 755q-19 0 -32.5 -13.5t-13.5 -33.5v-648q0 -20 13.5 -33.5t32.5 -13.5h139v742h-139zM335 57q-19 0 -32.5 13.5t-13.5 32.5t13.5 32.5t33 13.5t33 -13.5t13.5 -32.5t-14 -32.5t-33 -13.5zM466 755h92v-742h-92v742zM744 755h-139v-742h139q19 0 32.5 13.5t13.5 33.5
v648q0 20 -13.5 33.5t-32.5 13.5z" />
    <glyph glyph-name="uniE605" unicode="&#xe605;" 
d="M816 208q0 -67 -34 -88q-35 -23 -165 -25h-104q-188 0 -234 11q-53 12 -65 54q-5 18 -5 48q0 38 15 86.5t44 98t65 91.5t84 68.5t96 26.5t95.5 -26.5t83.5 -68.5t65 -91.5t44 -98t15 -86.5zM513.5 526q-53.5 0 -91 -38t-37.5 -91.5t37.5 -91.5t91 -38t91 38t37.5 91.5
t-37.5 91.5t-91 38zM243 431q47 74 115 125t154 51q44 0 87 -16.5t76.5 -43t59 -55.5t43.5 -60q17 -28 44 -27.5t41 27.5q4 7 6.5 21t0 37t-12 46.5t-35 48t-63 43.5t-101.5 31t-146 12q-83 0 -148 -12.5t-102.5 -32t-62.5 -44t-34 -49t-11 -46.5t1 -36t7 -19
q11 -18 29.5 -21.5t33 3.5t18.5 17z" />
    <glyph glyph-name="uniE606" unicode="&#xe606;" 
d="M620 467q-18 17 -32 30l-25 23l-11 11q-18 16 -41 15t-39 -15q-2 -3 -12 -12t-25 -23q-18 -17 -33 -30l-36 -34q-42 -38 -96 -87v-251q0 -15 11 -23.5t29 -8.5h127v4v110q0 26 18.5 44.5t44.5 18.5h24q26 0 44.5 -18.5t18.5 -44.5v-110v-4h127q18 1 28.5 12t10.5 25v244
q-53 50 -97 90zM835.5 408.5q-0.5 15.5 -13.5 28.5l-17 16q-12 12 -30 29.5t-40 38.5q-21 21 -44 43t-44 43q-23 21 -40 38q-19 18 -30 29q-12 12 -16 15q-20 20 -48.5 19.5t-53.5 -24.5q-3 -3 -22.5 -21.5t-47.5 -44.5t-59 -55q-28 -26 -60 -56q-28 -26 -48 -44.5
t-23 -22.5q-11 -10 -11.5 -26t12.5 -28q11 -10 27.5 -9.5t25.5 8.5q4 2 19.5 16.5t37.5 35.5t48 44q26 25 49 46q23 22 41 38.5t24 22.5q20 17 40 18t40 -18q5 -4 22 -20q16 -16 40 -38q24 -23 49 -47q28 -26 49 -46q25 -23 40 -38q16 -15 19 -18q10 -8 26 -8.5t29 10.5
q10 10 9.5 25.5z" />
    <glyph glyph-name="uniE607" unicode="&#xe607;" 
d="M511 748q81 0 139 -58t58 -139v-41h-10h-81v41q0 44 -31 75t-75 31t-75.5 -31t-31.5 -75v-41h-78q-6 0 -12 -1v42q0 81 58 139t139 58zM698 488h-372q-30 0 -51 -21t-21 -51v-324q0 -30 21 -51t51 -21h372q30 0 51 21t21 51v324q0 30 -21 51t-51 21zM574 128h-117l24 139
q-35 20 -35 61q0 29 20.5 50t50 21t50.5 -21t21 -50q0 -42 -37 -62z" />
    <glyph glyph-name="uniE608" unicode="&#xe608;" 
d="M851 527q-29 67 -78.5 116.5t-116.5 78.5t-143 29t-143 -29t-117 -78.5t-79 -116.5t-29 -143.5t29 -143t79 -116.5t117 -79t143 -29t143 29t116.5 79t78.5 116.5t29 143t-29 143.5zM513 146q-17 0 -29.5 12.5t-12.5 29.5t12.5 29t29.5 12t29 -12t12 -29t-12 -29.5
t-29 -12.5zM554 319q0 -17 -12 -29t-29 -12t-29.5 12t-12.5 29v261q0 17 12.5 29t29.5 12t29 -12t12 -29v-261zM554 319z" />
    <glyph glyph-name="uniE609" unicode="&#xe609;" 
d="M512 778q-104 0 -192 -51.5t-139.5 -139.5t-51.5 -192t51.5 -192.5t139.5 -139.5t192 -51t192 51t139.5 139.5t51.5 192.5t-51.5 192t-139.5 139.5t-192 51.5v0zM512 78q-86 0 -159 42.5t-115.5 115.5t-42.5 159q0 131 93 224t224 93t224 -93t93 -224q0 -86 -42.5 -159
t-115.5 -115.5t-159 -42.5v0zM649 531q-7 7 -17 7t-17 -7l-103 -102l-103 102q-7 7 -17 7t-17 -7t-7 -17t7 -17l103 -102l-103 -103q-7 -7 -7 -17t7 -17t17 -7t17 7l103 103l103 -103q7 -7 17 -7t17 7t7 17t-7 17l-103 103l103 102q7 7 7 17t-7 17z" />
    <glyph glyph-name="uniE60A" unicode="&#xe60a;" 
d="M512 10q-102 0 -188 50t-136 136t-50 188t50 188t136 136t188 50t188 -50t136 -136t50 -188t-50 -188t-136 -136t-188 -50zM512 711q-89 0 -164 -44t-119 -119t-44 -164t44 -164t119 -119t164 -44t164 44t119 119t44 164t-44 164t-119 119t-164 44zM675 361h-247l97 -97
q6 -6 6 -16t-6.5 -16.5t-16.5 -6.5t-17 6l-132 132q-8 9 -6 21q-2 12 6 21l132 132q7 6 17 6t16.5 -6.5t6.5 -16.5t-6 -16l-97 -97h247q10 0 17 -6.5t7 -16.5t-7 -16.5t-17 -6.5z" />
    <glyph glyph-name="uniE60B" unicode="&#xe60b;" 
d="M292 83l301 301l-301 301l69 70l371 -371l-371 -371z" />
    <glyph glyph-name="uniE60C" unicode="&#xe60c;" 
d="M510.5 -102q-106.5 0 -197 52.5t-142.5 142.5t-52 196.5t52 197t142.5 142.5t197 52t196.5 -52t142.5 -142.5t52.5 -197t-52.5 -196.5t-142.5 -142.5t-196.5 -52.5zM510 608q-132 0 -225 -93t-93 -225q0 -122 83 -213q22 11 40.5 13.5t48.5 14.5q27 11 46.5 19.5
t24.5 11.5l5 3l1 59q-3 2 -7 6.5t-12 23t-11 42.5q-10 -2 -15 7.5t-5 23.5q-1 1 -1.5 9.5t-1 14.5t0 13t3.5 10t8 2q-7 48 -5 64q3 36 35 64.5t81 31.5q55 -2 83 -29.5t32 -66.5q1 -15 -5 -64q5 1 7.5 -2t3 -10t0.5 -13t-1 -14.5t-1 -9.5q-1 -14 -6 -23.5t-14 -7.5
q-3 -24 -11 -42t-14 -24l-6 -6l1 -58q15 -8 76 -34q31 -12 49 -15t41 -14q82 91 82 213q0 132 -93 225t-225 93z" />
    <glyph glyph-name="uniE60D" unicode="&#xe60d;" 
d="M226 737q4 4 9 9.5t5.5 6.5t4 1t4 -1t5.5 -6.5t9 -9.5q18 -20 57.5 -59.5t57.5 -59.5q7 -7 7 -12t-7 -12q-14 -10 -14 -13.5t14 -13.5q30 -35 88 -83q3 -4 3 -9.5t-3 -9.5q-5 -4 -12 -12.5t-13 -14t-12 -10.5q-7 -7 -14 0l-92 93q-7 7 -11.5 7t-11.5 -7
q-11 -14 -14.5 -14t-13.5 14q-24 20 -65.5 61.5t-58.5 62.5q-7 7 0 14zM710 742q-83 -92 -129 -138q-11 -12 -4 -33q13 -32 32 -96q7 -14 18 -14q16 -3 51 -9.5t51 -9.5q11 -2 15 -0.5t13 9.5q18 19 52.5 58t53.5 58q7 7 13 14q8 -36 0 -65q-13 -61 -55.5 -99t-105.5 -49
q-37 -6 -83 10q-19 0 -23 -5q-107 -67 -194 -175l-3 -5l-1.5 -4.5t-1.5 -4t-0.5 -5t2.5 -4.5q13 -48 -12.5 -90.5t-71.5 -52.5q-50 -10 -88.5 15.5t-49.5 71.5q-10 53 23 96t88 43h32q9 0 14 4q97 90 166 208q8 8 0 23q-18 58 -7 110t52 91t98 48q8 2 17.5 2t20.5 -1t17 -1z
M364 142q0 28 -18.5 46.5t-46 18.5t-46 -18.5t-18.5 -46t18.5 -46t46.5 -18.5q27 0 45.5 19.5t18.5 44.5zM724.5 27q-32.5 0 -51.5 19q-27 27 -80 82.5t-81 83.5q-3 3 -3 9t3 9q54 85 134 115q13 7 18 -4q51 -51 152 -143q28 -24 28 -55.5t-28 -55.5q-4 -3 -12.5 -12.5
t-14 -14.5t-9.5 -10q-23 -23 -55.5 -23zM798 165l-138 139q-10 9 -28 0q-14 -14 0 -28q0 -2 35.5 -37.5t71.5 -70.5l36 -35q14 -4 28 5q2 5 0.5 11t-3.5 11zM567 244q-6 -8 -5 -18t5 -14q19 -21 41 -43t50 -49t43 -42q19 -19 32 -5q8 7 7 16.5t-11 15.5q-42 47 -134 130
q0 7 -8.5 11t-19.5 -2z" />
    <glyph glyph-name="uniE60E" unicode="&#xe60e;" 
d="M335 41l343 343l-343 343l38 38l381 -381l-381 -381z" />
    <glyph glyph-name="uniE60F" unicode="&#xe60f;" 
d="M511.5 750q-99.5 0 -183.5 -49t-133 -133.5t-49 -184t49 -183.5t133 -133t183.5 -49t183.5 49t133 133t49 183.5t-49 184t-133 133.5t-183.5 49zM686 617q13 13 31.5 13t31.5 -13t13 -31.5t-13 -31.5t-31.5 -13t-31.5 13t-13 31.5t13 31.5zM511.5 715q18.5 0 31.5 -13
t13 -31.5t-13 -31.5t-31.5 -13t-31.5 13t-13 31.5t13 31.5t31.5 13zM274 617q13 13 31.5 13t31.5 -13t13 -31.5t-13 -31.5t-31.5 -13t-31.5 13t-13 31.5t13 31.5zM220.5 335q-18.5 0 -31.5 13t-13 31.5t13 31.5t31.5 13t31.5 -13t13 -31.5t-13 -31.5t-31.5 -13zM337 142.5
q-13 -13.5 -31.5 -13.5t-31.5 13.5t-13 31.5t13 31.5t31.5 13.5t31.5 -13.5t13 -31.5t-13 -31.5zM511.5 44q-18.5 0 -31.5 13t-13 31.5t13 31.5t31.5 13t31.5 -13t13 -31.5t-13 -31.5t-31.5 -13zM511 171q-88 0 -150 62.5t-62 150.5t62 150t150 62t150.5 -62t62.5 -150
t-62.5 -150.5t-150.5 -62.5zM749 142.5q-13 -13.5 -31.5 -13.5t-31.5 13.5t-13 31.5t13 31.5t31.5 13.5t31.5 -13.5t13 -31.5t-13 -31.5zM802.5 335q-18.5 0 -31.5 13t-13 31.5t13 31.5t31.5 13t31.5 -13t13 -31.5t-13 -31.5t-31.5 -13zM628 497h-65q-4 18 -18 29.5
t-32.5 11.5t-33 -11.5t-18.5 -29.5h-64q-6 0 -10 -4t-4 -10v-16q0 -6 4 -10t10 -4h231q6 0 10 4t4 10v16q0 6 -4 10t-10 4zM476 497q4 12 14 19.5t22.5 7.5t22.5 -7.5t14 -19.5h-73zM407 266q0 -20 14.5 -35t35.5 -15h111q20 0 35 15t15 35v175h-211v-175zM554 402q0 6 4 10
t9.5 4t9.5 -4t4 -10v-141q0 -5 -4 -9t-9.5 -4t-9.5 4t-4 9v141zM499 402q0 6 4 10t9.5 4t9.5 -4t4 -10v-141q0 -5 -4 -9t-9.5 -4t-9.5 4t-4 9v141zM443 402q0 6 4 10t10 4t10 -4t4 -10v-141q0 -5 -4 -9t-10 -4t-10 4t-4 9v141z" />
    <glyph glyph-name="uniE610" unicode="&#xe610;" 
d="M511.5 751q-99.5 0 -184 -49t-134 -133.5t-49.5 -184.5t49.5 -184.5t134 -133.5t184 -49t184.5 49t134 133.5t49 184.5t-49 184.5t-134 133.5t-184.5 49zM511 69q-131 0 -223 92.5t-92 223.5t92 223.5t223 92.5t223.5 -92.5t92.5 -223.5t-92.5 -223.5t-223.5 -92.5z
M504 222q5 -5 5 -12t-5 -12t-12 -5t-12 5l-174 174q-5 5 -5 12t5 12t12 5t12 -5zM330 372q-5 -5 -12 -5t-12 5t-5 12t5 12l174 174q5 5 12 5t12 -5t5 -12t-5 -12zM698 407q9 0 16 -6.5t7 -16.5t-7 -16.5t-16 -6.5h-334q-10 0 -17 6.5t-7 16.5t7 16.5t17 6.5h334z" />
    <glyph glyph-name="uniE611" unicode="&#xe611;" horiz-adv-x="1025" 
d="M512 596q-27 0 -47 -9.5t-30 -22t-16 -29.5t-7.5 -27t-1.5 -18v-64h204v64q0 9 -1.5 18.5t-7.5 26.5t-16 29.5t-30 22t-47 9.5zM512 342q-17 0 -29 -12.5t-12 -30.5q0 -24 21 -36v-70h40v70q21 12 21 36q0 18 -12 30.5t-29 12.5zM512 755q-101 0 -186.5 -49.5t-135 -135
t-49.5 -186.5t49.5 -186.5t135 -135t186.5 -49.5t186.5 49.5t135 135t49.5 186.5t-49.5 186.5t-135 135t-186.5 49.5zM716 129h-408v297h61v64q0 3 0.5 8.5t3.5 21t7.5 29.5t15.5 31t25.5 29.5t38 21t52.5 8.5t52.5 -8.5t38 -21.5t25.5 -29t15.5 -31.5t7.5 -28.5t3 -22l1 -8
v-64h61v-297z" />
    <glyph glyph-name="uniE612" unicode="&#xe612;" 
d="M795 738h-568q-36 0 -61 -25t-25 -60v-455q0 -35 25 -60t61 -25h187l77 -77q8 -8 20 -8t20 8l77 77h187q35 0 60 25t25 60v455q0 35 -25 60t-60 25zM355 397q-18 0 -30.5 12.5t-12.5 30t12.5 30t30 12.5t30 -12.5t12.5 -30t-12.5 -30t-29.5 -12.5zM525 397
q-17 0 -29.5 12.5t-12.5 30t12.5 30t30 12.5t30 -12.5t12.5 -30t-12.5 -30t-30.5 -12.5zM696 397q-18 0 -30.5 12.5t-12.5 30t12.5 30t30 12.5t30 -12.5t12.5 -30t-12.5 -30t-29.5 -12.5zM696 397z" />
    <glyph glyph-name="uniE613" unicode="&#xe613;" 
d="M512 13q-101 0 -186.5 49.5t-135 135t-49.5 186.5t49.5 186.5t135 135t186.5 49.5t186.5 -49.5t135 -135t49.5 -186.5t-49.5 -186.5t-135 -135t-186.5 -49.5zM512 708q-88 0 -163 -43t-118 -118t-43 -163t43 -163t118 -118t163 -43t163 43t118 118t43 163t-43 163
t-118 118t-163 43zM545 384l98 -98q7 -7 7 -16.5t-7 -16.5t-16.5 -7t-16.5 7l-98 98l-99 -99q-7 -7 -16.5 -7t-16.5 7t-7 16.5t7 16.5l99 99l-98 98q-7 7 -7 16.5t7 16.5t16.5 7t16.5 -7l98 -98l99 99q7 7 17 7t16.5 -6.5t6.5 -16.5t-7 -17z" />
    <glyph glyph-name="uniE614" unicode="&#xe614;" 
d="M836 140q-39 0 -65 -32l-67 57q50 66 50 148q0 99 -69 170t-167 74v73q30 3 51.5 26t21.5 54q0 34 -24 57.5t-57 23.5t-57 -23.5t-24 -57.5q0 -31 21.5 -54t51.5 -26v-73q-98 -5 -167 -75t-69 -169q0 -82 50 -148l-67 -56q-26 33 -65 33q-33 0 -57 -23.5t-24 -57t24 -57
t57 -23.5t56.5 23.5t23.5 56.5q0 20 -7 35l69 58q34 -39 81.5 -61t101 -22t101 22t81.5 61l69 -58q-8 -19 -8 -35q0 -33 24 -56.5t57 -23.5t56.5 23.5t23.5 56.5q5 32 -18.5 55.5t-58.5 23.5zM512 159q-55 0 -97 36t-51 89h-44l61 75l37 -42l31 -35h-50q10 -39 41.5 -64.5
t71.5 -25.5q49 0 83 35t34 84t-34 84t-83 35q-58 0 -92 -46q-14 2 -17 6q-6 7 -6 21q43 56 117 56q63 0 107.5 -45t44.5 -109q-2 -64 -46.5 -109t-107.5 -45z" />
    <glyph glyph-name="uniE615" unicode="&#xe615;" horiz-adv-x="1064" 
d="M210 166h25l135 391l70 202q4 13 18 13h139q14 0 18 -14l69 -201l135 -391h25q36 0 60 -25q25 -25 25 -59q0 -33 -25 -59q-24 -24 -60 -24h-634q-35 0 -60 24q-25 25 -25 59t25 59t60 25zM298 231l-23 -65h504l-22 65h-459zM632 593h-209l-17 -48l-24 -70h291l-25 70z
" />
    <glyph glyph-name="uniE616" unicode="&#xe616;" 
d="M497 380q80 0 137 57t57 137t-57 137t-137 57t-137 -57t-57 -137t57 -137t137 -57zM752 263q-27 28 -40.5 39t-38 19t-65.5 11h-222q-40 -3 -65 -11t-38.5 -19t-40.5 -39q-91 -94 -68 -191q25 -62 126 -62h394q101 0 126 62q23 97 -68 191z" />
    <glyph glyph-name="uniE617" unicode="&#xe617;" 
d="M521 756l-9 11l-9 -11q-2 -4 -9 -10.5t-31.5 -22.5t-54 -29t-79.5 -23t-107 -10h-11v-220q0 -64 25 -131.5t62.5 -121.5t79 -98.5t78 -68.5t56.5 -24h1q19 0 55.5 24t78 68.5t79 98.5t62.5 121.5t25 131.5v220h-11q-57 0 -107 10t-79.5 23t-54 29t-31 22.5t-9.5 10.5z
M770 441q0 -58 -24 -120.5t-59 -110.5t-72 -87.5t-65.5 -61t-37.5 -22.5q-9 1 -37.5 22.5t-65.5 61t-72 87.5t-59 110.5t-24 120.5v178q53 1 99.5 11t78.5 25t49.5 26t30.5 22q13 -11 30.5 -22t49.5 -26t78.5 -25t99.5 -11v-178zM513 642q-89 -61 -218 -72v-141q0 -23 5 -50
h213v263zM513 71l1 -1q21 13 50.5 41.5t63.5 69t62.5 94t38.5 104.5h-216v-308z" />
    <glyph glyph-name="uniE618" unicode="&#xe618;" 
d="M883 103l-187 188q-1 2 -7 6q50 77 50 170q0 129 -90.5 220t-218.5 91t-218.5 -91t-90.5 -220t90.5 -220.5t218.5 -91.5q91 0 168 51q4 -6 6 -7l187 -188q19 -20 45.5 -20t46 19.5t19.5 46.5t-19 46zM430 254q-87 0 -149 62.5t-62 150.5t62 150.5t149 62.5t149 -62.5
t62 -150.5t-62 -150.5t-149 -62.5z" />
    <glyph glyph-name="uniE619" unicode="&#xe619;" 
d="M873 397h-85q-5 0 -8 4t-3 9.5t3 9.5t8 4h85q4 0 7 -4t3 -9.5t-3 -9.5t-7 -4zM773 149.5q-9 -8.5 -16 -1.5l-57 57q-7 7 2 16t16 2l57 -57q7 -8 -2 -16.5zM512 198q-88 0 -150 63.5t-62 152.5q0 62 31.5 113.5t84.5 79.5v23q0 41 28 70t68 29t68 -29t28 -70v-23
q53 -28 84.5 -79.5t31.5 -113.5q0 -89 -62 -152.5t-150 -63.5zM311 222.5q9 -9.5 2 -16.5l-60 -60q-8 -8 -17 1.5t-2 17.5l60 60q8 7 17 -2.5zM236 397h-85q-4 0 -7 4t-3 9.5t3 9.5t7 4h85q5 0 8 -4t3 -9.5t-3 -9.5t-8 -4zM512.5 145q5.5 0 9 -3t3.5 -7v-85q0 -4 -3.5 -7.5
t-9 -3.5t-9.5 3.5t-4 7.5v85q0 4 4 7t9.5 3z" />
    <glyph glyph-name="uniE61A" unicode="&#xe61a;" 
d="M821 384q0 -128 -90.5 -218.5t-218.5 -90.5t-218.5 90.5t-90.5 218.5t90.5 218.5t218.5 90.5t218.5 -90.5t90.5 -218.5zM883 384q0 101 -49.5 186.5t-135 135t-186.5 49.5t-186.5 -49.5t-135 -135t-49.5 -186.5t49.5 -186.5t135 -135t186.5 -49.5t186.5 49.5t135 135
t49.5 186.5zM372 480l236 -236q9 -9 22 -9t22 9t9 22t-9 22l-236 236q-9 9 -22 9t-22 -9t-9 -22t9 -22zM608 524l-236 -236q-9 -9 -9 -22t9 -22t22 -9t22 9l236 236q9 9 9 22t-9 22t-22 9t-22 -9z" />
    <glyph glyph-name="uniE61B" unicode="&#xe61b;" 
d="M145 487.5q0 -108.5 76.5 -185t185.5 -76.5q95 0 168 61l43 -42q-7 -16 -4 -34.5t16 -31.5l144 -143q17 -17 41.5 -17t42.5 17v1q18 17 18 41.5t-18 42.5l-143 143q-13 13 -31 16.5t-34 -3.5l-43 43q65 76 61 178.5t-76 174.5q-77 76 -185.5 76t-185 -76.5t-76.5 -185z
M199 488q0 86 61 146.5t146.5 60.5t146.5 -60.5t61 -146.5t-61 -147t-146.5 -61t-146.5 61t-61 147z" />
    <glyph glyph-name="uniE61C" unicode="&#xe61c;" 
d="M841 647h-659q-4 -1 -10 -7t-16.5 -55.5t-10.5 -134.5q0 -28 0.5 -51.5t1.5 -41t3 -31.5t3 -23.5t4 -17t4.5 -11t5.5 -7t5 -4.5t5.5 -2.5t4.5 -2.5h57v65h545v-65h57q0 1 4.5 2.5t5.5 2.5t5 4.5t5.5 7t4.5 11t4 17t3 23.5t3 31.5t1.5 41t0.5 51.5q0 85 -9.5 134t-18.5 56
zM707 449h-496v62h496v-62zM788.5 460q-8.5 0 -15 6t-6.5 15t6.5 15t15 6t15 -6t6.5 -15t-6.5 -15t-15 -6zM257 289h511v-30h-511v30zM280 220v-98q4 3 9.5 9t15.5 31t11 58h-36zM261 139q7 -39 10 -52q20 22 34 37h-3t-8 0.5t-10.5 1.5t-11.5 4.5t-11 8.5zM405 220v-98
q3 3 8.5 9t15.5 31t12 58h-36zM386 139q7 -39 10 -51q19 21 33 36q-26 -2 -43 15zM606 220v-98q-3 3 -8.5 9t-15.5 31t-12 58h36zM625 139q-7 -39 -10 -51q-20 21 -33 36q29 0 43 15zM724 220v-98q-4 3 -9.5 9t-15.5 31t-11 58h36zM743 139q-7 -39 -10 -51q-20 21 -33 36
q26 -2 43 15z" />
    <glyph glyph-name="uniE61D" unicode="&#xe61d;" 
d="M507 761q-103 -1 -189 -52.5t-135.5 -139.5t-48 -190.5t53 -188.5t139.5 -135.5t190.5 -48t188.5 53t135.5 139.5t48 190.5t-53 188.5t-139 135.5t-190.5 47.5zM549 636q50 0 50 -48q0 -25 -19 -43t-50 -18q-55 0 -53 48q0 23 18.5 42t53.5 19zM450 148q-49 0 -27 86
l30 124q8 28 0 28q-6 0 -26.5 -9t-35.5 -18l-13 21q45 38 94 61.5t75 23.5q39 0 17 -79l-34 -131q-8 -31 3 -31q7 0 24 8t35 22l14 -20q-42 -42 -86.5 -64t-69.5 -22v0z" />
    <glyph glyph-name="uniE61E" unicode="&#xe61e;" 
d="M620 121q52 -19 82 -52t30 -72h-449q0 39 31.5 72t85.5 52q-98 35 -160.5 121.5t-62.5 194.5q0 91 44.5 168t122 122t169 45t168.5 -45t121.5 -122t44.5 -168q0 -108 -63 -194.5t-164 -121.5zM518 539q-72 0 -124 -52.5t-52 -124.5t52 -124t124 -52q74 0 125.5 52
t51.5 124.5t-51.5 124.5t-125.5 52zM518 266q-35 0 -61 25t-26 62q0 35 26 61t61 26q36 0 61.5 -25t25.5 -62q0 -35 -25 -61t-62 -26zM518 266z" />
    <glyph glyph-name="uniE61F" unicode="&#xe61f;" horiz-adv-x="1071" 
d="M597 78q-9 -3 -19 -4q-12 -3 -19 -13t-5 -22q3 -12 13 -19q10 -8 22 -5q12 2 23 5q12 3 18 13.5t3 22.5t-13.5 18.5t-22.5 3.5v0zM819 479q3 -9 11 -15q12 -9 26 -4q12 4 17.5 15t1.5 23q-3 11 -7 21q-5 12 -16.5 17t-23 0t-16.5 -16t0 -23q4 -9 7 -18zM694 121
q-8 -6 -16 -11q-11 -6 -14 -18t3 -22q3 -6 9 -10q16 -11 32 -1q10 5 19 12q11 6 13.5 18.5t-4.5 22.5t-19 12.5t-23 -3.5zM894 396q0 12 -9.5 20.5t-21.5 8t-20.5 -9.5t-8.5 -22q1 -10 0 -19q0 -16 13 -25q8 -5 17 -5q12 -1 21 7.5t9 21.5q1 11 0 23zM814 199q-10 8 -22.5 6
t-19.5 -12q-6 -7 -12 -15q-8 -9 -7 -21.5t10 -20.5q1 -1 2 -1q10 -7 21.5 -5.5t18.5 10.5q8 8 15 17q7 10 5.5 22.5t-11.5 19.5zM858 308q-12 3 -23 -2.5t-15 -17.5l-6 -18q-8 -22 11 -35l6 -4q12 -4 23 1t16 17q4 10 7 21q4 12 -1.5 23t-17.5 15zM466 73q-40 8 -76 25h-1
q-9 4 -17 9q-16 8 -30 19q-69 48 -104 124t-28 159t56 152q32 45 77 77h1q78 54 173 55.5t178 -52.5l-23 -34q-5 -7 -2.5 -11.5t11.5 -3.5l101 9q9 1 13.5 7.5t1.5 14.5l-27 98q-2 9 -7 9.5t-10 -6.5l-24 -34q-124 84 -271 58q-14 -2 -28 -6h-1q-127 -33 -205 -138
q-1 -1 -2 -1q-2 -3 -5 -7q-4 -6 -7 -12q-1 0 -1 -1q-65 -100 -59 -218v-1q0 -11 1 -22q0 -1 1 -2q1 -12 3 -23q20 -117 104 -200h1q22 -22 47 -40q68 -48 149 -63q12 -2 22 5t12.5 19.5t-4.5 22.5t-20 12v0zM503 623q-10 0 -17 -7t-7 -17v-242l221 -114q5 -2 11 -2
q15 0 22 13q4 9 1 18.5t-12 13.5l-194 101v212q0 10 -7.5 17t-17.5 7z" />
    <glyph glyph-name="uniE620" unicode="&#xe620;" 
d="M885 304q-18 37 -27 52q-17 29 0 58q7 13 27 52q25 49 -25 74q-34 18 -53 27q-29 13 -33 45t-9 63q-9 49 -59 42q-43 -7 -62 -10q-30 -6 -52 16l-42 42q-20 20 -38 20.5t-38 -19.5l-44 -44q-20 -21 -50 -16q-26 6 -64 11q-23 3 -38 -8t-19 -34q-7 -37 -10 -62
q-4 -33 -33 -46q-26 -13 -55 -28q-46 -24 -23 -71l29 -58q13 -25 1 -49q-15 -28 -30 -57q-24 -48 24 -73q26 -14 56 -28q27 -13 31 -43q6 -42 10 -68q4 -20 19 -31t36 -7q48 7 66 10q30 6 51 -16l42 -42q21 -21 38.5 -21t37.5 20q20 19 44 44q20 21 50 15q6 -1 68 -11
q46 1 53 41q6 33 11 66q4 31 31 43q23 11 55 28q48 25 24 73zM702 452q-109 -110 -198 -198q-15 -15 -30 0q-28 28 -115 114q-8 8 -8 20q4 15 28 29q11 7 26 -9q69 -68 74 -74q10 -10 20 0q23 23 48.5 49t57 57t48.5 48l2 2q14 15 25 10q22 -10 29 -30q2 -9 -7 -18z" />
    <glyph glyph-name="uniE621" unicode="&#xe621;" 
d="M510.5 19q-99.5 0 -184 49t-134 133.5t-49.5 184t49.5 184t134 134t184 49.5t184 -49.5t133.5 -134t49 -184t-49 -184t-133.5 -133.5t-184 -49zM510.5 684q-123.5 0 -211 -87.5t-87.5 -210.5q0 -115 77 -200q22 10 39 12.5t45 14.5l72 32v54q-21 17 -28 68q-9 -2 -13.5 7
t-5.5 22q0 1 -1 9t-1 13.5t0.5 12t3 9.5t7.5 2q-6 46 -5 60q4 34 33.5 61t75.5 29q51 -2 77.5 -28t30.5 -62q1 -13 -5 -60q5 1 7.5 -2t3 -9.5t0 -12t-1 -13.5t-0.5 -9q-1 -13 -5.5 -22t-13.5 -6q-3 -23 -10.5 -40t-12.5 -23l-6 -5l1 -55q14 -8 71 -31q29 -12 46 -15t38 -13
q78 85 78 200q0 123 -87.5 210.5t-211 87.5z" />
    <glyph glyph-name="uniE622" unicode="&#xe622;" 
d="M606 712v-234h234v234h-234v0zM559 712q0 20 13.5 33.5t33.5 13.5h234q20 0 33.5 -13.5t13.5 -33.5v-234q0 -20 -13.5 -33.5t-33.5 -13.5h-234q-20 0 -33.5 13.5t-13.5 33.5v234zM137 712q0 20 13.5 33.5t33.5 13.5h234q20 0 33.5 -13.5t13.5 -33.5v-234
q0 -20 -13.5 -33.5t-33.5 -13.5h-234q-20 0 -33.5 13.5t-13.5 33.5v234zM137 290q0 20 13.5 33.5t33.5 13.5h234q20 0 33.5 -13.5t13.5 -33.5v-234q0 -20 -13.5 -33.5t-33.5 -13.5h-234q-20 0 -33.5 13.5t-13.5 33.5v234zM559 290q0 20 13.5 33.5t33.5 13.5h234
q20 0 33.5 -13.5t13.5 -33.5v-234q0 -20 -13.5 -33.5t-33.5 -13.5h-234q-20 0 -33.5 13.5t-13.5 33.5v234z" />
    <glyph glyph-name="uniE623" unicode="&#xe623;" 
d="M382 574h260q14 0 22.5 10.5t5.5 24.5l-10 38q-3 12 -13.5 20.5t-23.5 8.5h-37q-7 0 -9 7l-10 38q-3 12 -13.5 20.5t-22.5 8.5h-38q-12 0 -22.5 -8.5t-13.5 -20.5l-10 -38q-2 -7 -9 -7h-37q-13 0 -23.5 -8.5t-13.5 -20.5l-10 -38q-3 -14 5.5 -24.5t22.5 -10.5zM753 638
h-37q-5 0 -9.5 -4t-4.5 -9l6 -29q5 -17 -5.5 -30.5t-28.5 -13.5h-324q-18 0 -28.5 13.5t-5.5 30.5l6 29q0 5 -4.5 9t-9.5 4h-37q-14 0 -23.5 -9.5t-9.5 -22.5v-555q0 -14 9.5 -23.5t23.5 -9.5h482q14 0 23.5 9.5t9.5 23.5v555q0 13 -9.5 22.5t-23.5 9.5zM642 167h-260
q-6 0 -10 4t-4 9.5t4 9.5t10 4h260q6 0 10 -4t4 -9.5t-4 -9.5t-10 -4zM642 241h-260q-6 0 -10 4t-4 9.5t4 9.5t10 4h260q6 0 10 -4t4 -9.5t-4 -9.5t-10 -4zM642 315h-260q-6 0 -10 4t-4 9.5t4 9.5t10 4h260q6 0 10 -4t4 -9.5t-4 -9.5t-10 -4zM642 389h-260q-6 0 -10 4
t-4 9.5t4 9.5t10 4h260q6 0 10 -4t4 -9.5t-4 -9.5t-10 -4zM642 463h-260q-6 0 -10 4t-4 9.5t4 9.5t10 4h260q6 0 10 -4t4 -9.5t-4 -9.5t-10 -4z" />
    <glyph glyph-name="uniE624" unicode="&#xe624;" 
d="M760 632q-100 100 -248 100q-141 0 -248 -100q-100 -100 -100 -248q0 -141 100 -248q100 -100 248 -100q141 0 248 100q100 100 100 248q0 141 -100 248zM773 384q0 -84 -48 -152l-365 365q68 48 152 48q108 0 184.5 -76.5t76.5 -184.5zM251 384q0 84 48 152l365 -365
q-68 -48 -152 -48q-108 0 -184.5 76.5t-76.5 184.5z" />
    <glyph glyph-name="uniE625" unicode="&#xe625;" 
d="M759 743h-494q-46 0 -79 -33t-33 -79v-494q0 -46 33 -79t79 -33h494q46 0 79 33t33 79v494q0 46 -33 79t-79 33zM750 487l-270 -270q-13 -13 -31.5 -13t-32.5 13l-143 143q-13 13 -13 32t13.5 32t32 13t31.5 -13l111 -111l238 238q13 13 32 13t32 -13t13 -32t-13 -32z
" />
    <glyph glyph-name="uniE626" unicode="&#xe626;" 
d="M631 753h-383q-2 0 -6.5 -0.5t-16 -4t-20.5 -10t-16.5 -21.5t-7.5 -36v-161l2 -442q0 -26 18 -44t43 -18h537q25 0 43.5 18t18.5 44v450zM494 408h-200q-10 0 -16.5 6.5t-6.5 15.5t6.5 16t15.5 7h201q9 0 16 -7t7 -16t-7 -15.5t-16 -6.5zM494 503h-200q-10 0 -16.5 6.5
t-6.5 16t6.5 16t15.5 6.5h201q9 0 16 -6.5t7 -16t-7 -16t-16 -6.5zM494 605h-200q-10 0 -16.5 6.5t-6.5 16t6.5 16t15.5 6.5h201q9 0 16 -6.5t7 -16t-7 -16t-16 -6.5zM734 515q-46 0 -79 27t-33 65v133l211 -225h-99z" />
    <glyph glyph-name="uniE627" unicode="&#xe627;" 
d="M567 39h197q24 0 41.5 17t17.5 41v278q-199 -193 -256 -336zM624 731h-360q-2 0 -6.5 -0.5t-15 -3.5t-19 -9.5t-15.5 -20.5t-7 -33v-152l1 -415q0 -24 17 -41t42 -17h281q-12 27 -27.5 54.5t-39 64t-56.5 69.5t-69 56q5 0 13.5 -1.5t33.5 -8.5t48.5 -16t52.5 -25.5
t50 -36.5q5 6 13.5 16t37 38t58.5 53.5t75.5 55t90.5 49.5v112zM495 406h-188q-9 0 -15.5 6.5t-6.5 15t6.5 15t15.5 6.5h188q9 0 15 -6.5t6 -15t-6 -15t-15 -6.5zM495 496h-188q-9 0 -15.5 6.5t-6.5 15t6.5 15t15.5 6.5h188q9 0 15 -6.5t6 -15t-6 -15t-15 -6.5zM495 592
h-188q-9 0 -15.5 6t-6.5 15t6.5 15t15.5 6h188q9 0 15 -6t6 -15t-6 -15t-15 -6zM721 507q-44 0 -74.5 25.5t-30.5 61.5v125l198 -212h-93z" />
    <glyph glyph-name="uniE628" unicode="&#xe628;" 
d="M761 731h-499q-40 0 -68.5 -28.5t-28.5 -68.5v-499q0 -40 28.5 -68.5t68.5 -28.5h499q40 0 68.5 28.5t28.5 68.5v499q0 40 -28.5 68.5t-68.5 28.5zM709 335h-148v-148h-98v148h-148v98h148v149h98v-149h148v-98z" />
  </font>
</defs>
</svg>
